<svg width="239" height="37" viewBox="0 0 239 37" fill="none" xmlns="http://www.w3.org/2000/svg">
<g id="Logo">
<g id="White Logo">
<path id="White Secondary Logo" d="M24.3404 0.888889H21.2242L0 37.0006H20.195L22.9875 31.3L25.9246 37.0006H46.7382L24.3404 0.888889ZM22.8257 5.46211L33.0937 22.009H13.101L22.8257 5.46211ZM17.8882 33.3004H6.4638L10.9272 25.7034H21.6115L17.8882 33.3004ZM24.2826 25.7034H35.389L40.1068 33.3004H28.1794L24.2826 25.7034Z" fill="white"/>
<path id="Vector" d="M65.0253 36.515H60.3654L70.7722 12.0069H75.6576L86.2842 36.515H81.3987L78.6293 29.8257H70.46L72.021 25.8884H76.9527L73.1022 16.6842L65.0253 36.515Z" fill="white"/>
<path id="Vector_2" d="M102.733 12.0069V15.921H95.7023V36.515H91.1638V15.921H84.1334V12.0069H102.733Z" fill="white"/>
<path id="Vector_3" d="M113.012 36.515V12.0069H122.61C130.704 12.0069 134.761 15.8612 134.78 23.57C134.78 32.1923 130.723 36.5015 122.61 36.4976L113.012 36.515ZM122.61 32.5719C127.698 32.5719 130.24 29.5771 130.236 23.5874C130.236 18.4764 127.694 15.921 122.61 15.921H117.557V32.5719H122.61Z" fill="white"/>
<path id="Vector_4" d="M143.175 12.0069V36.515H138.636V12.0069H143.175Z" fill="white"/>
<path id="Vector_5" d="M167.856 35.3818C165.497 36.3201 162.971 36.763 160.433 36.6826C151.784 36.6826 147.459 32.4274 147.459 23.9169C147.459 15.8651 151.859 11.8373 160.658 11.8334C163.111 11.7913 165.55 12.1969 167.856 13.0302V17.1409C165.69 16.2169 163.355 15.7504 161 15.7707C155.114 15.7707 152.171 18.4841 152.171 23.9111C152.171 29.7968 154.948 32.7377 160.502 32.7338C161.453 32.7175 162.397 32.5795 163.312 32.3233V25.2004H167.856V35.3818Z" fill="white"/>
<path id="Vector_6" d="M176.679 12.0069V36.515H172.141V12.0069H176.679Z" fill="white"/>
<path id="Vector_7" d="M197.845 12.0069V15.921H190.821V36.515H186.277V15.921H179.229V12.0069H197.845Z" fill="white"/>
<path id="Vector_8" d="M200.366 36.515H195.706L206.113 12.0069H210.999L221.619 36.515H216.74L213.918 29.8257H205.824L207.385 25.8884H212.323L208.466 16.6842L200.366 36.515Z" fill="white"/>
<path id="Vector_9" d="M229.158 12.0069V32.5719H238.889V36.515H224.614V12.0069H229.158Z" fill="white"/>
</g>
</g>
</svg>
